<?xml version="1.0" encoding="UTF-8"?>
<svg version="1.1" xmlns="http://www.w3.org/2000/svg" width="1024" height="1024">
<path d="M0 0 C337.92 0 675.84 0 1024 0 C1024 337.92 1024 675.84 1024 1024 C686.08 1024 348.16 1024 0 1024 C0 686.08 0 348.16 0 0 Z " fill="#F9F9F9" transform="translate(0,0)"/>
<path d="M0 0 C8.83974169 6.33514821 12.11325456 13.23820119 15.53125 23.4921875 C15.53125 33.3921875 15.53125 43.2921875 15.53125 53.4921875 C103.64125 53.4921875 191.75125 53.4921875 282.53125 53.4921875 C282.53125 43.9221875 282.53125 34.3521875 282.53125 24.4921875 C287.1051287 11.91402108 292.69932211 1.87472758 305.15625 -3.9453125 C314.47738956 -7.27224231 325.55731121 -6.65806342 334.53125 -2.5078125 C342.8032641 2.32882963 349.29875481 9.41701757 352.73730469 18.37109375 C354.37904178 24.82495814 353.93684342 31.507403 353.78125 38.1171875 C353.76114241 39.61325718 353.74289921 41.10935314 353.7265625 42.60546875 C353.68293115 46.23492988 353.61414303 49.86338569 353.53125 53.4921875 C354.414711 53.48552567 355.298172 53.47886383 356.20840454 53.47200012 C364.59221618 53.41153363 372.97595308 53.36603419 381.35993385 53.33675098 C385.66876257 53.3211894 389.97740897 53.30012823 394.28613281 53.26586914 C398.45533376 53.23293224 402.62436094 53.2152633 406.7936821 53.20755577 C408.37305812 53.20207312 409.95242617 53.19136981 411.53172684 53.17499733 C434.21026618 52.94954597 453.52248908 59.01922196 470.34375 74.7421875 C482.22188425 87.27416401 489.87549416 104.34770408 489.78851891 121.63379002 C489.79202498 122.52492301 489.79553105 123.416056 489.79914337 124.33419302 C489.80844069 127.31763031 489.80353831 130.30087169 489.79867554 133.28431702 C489.80241264 135.44605287 489.80701441 137.60778738 489.81240618 139.76951975 C489.82464432 145.70832748 489.82437474 151.64707891 489.82201743 157.58589637 C489.82160947 163.99170099 489.83264656 170.3974875 489.84213257 176.80328369 C489.85874857 189.35364864 489.86426833 201.90399421 489.86535732 214.45436919 C489.86627682 224.65714255 489.87039567 234.85990982 489.87675858 245.0626812 C489.87855371 248.00083476 489.88033334 250.93898832 489.88210833 253.87714189 C489.88277148 254.97284057 489.88277148 254.97284057 489.88344802 256.09067458 C489.89575547 276.63596775 489.90364926 297.18125881 489.90276146 317.72655582 C489.9027303 318.50105106 489.90269914 319.27554629 489.90266704 320.07351107 C489.90250083 323.99885339 489.90230275 327.92419571 489.90209763 331.84953804 C489.90203779 333.018888 489.90203779 333.018888 489.90197675 334.21186121 C489.90189587 335.78833584 489.90181228 337.36481048 489.90172596 338.94128512 C489.90050091 363.45949701 489.91550559 387.97765355 489.94287109 412.49584961 C489.97361465 440.05187955 489.99080217 467.60787313 489.98894465 495.1639213 C489.98879539 498.10427535 489.98869798 501.04462939 489.98863602 503.98498344 C489.98860105 505.07093943 489.98860105 505.07093943 489.98856538 506.17883391 C489.98850392 517.81324412 490.00125835 529.44760617 490.01850055 541.08200207 C490.0354823 552.78299852 490.03706892 564.48390904 490.0242819 576.18491281 C490.01775479 582.51989876 490.01762609 588.85471073 490.0349884 595.1896801 C490.05073522 600.9950289 490.04783864 606.80006601 490.03042014 612.60540729 C490.02735381 614.69963523 490.03096866 616.79388653 490.04214029 618.88808692 C490.11634061 633.79081584 488.93319013 647.29613186 481.84375 660.7421875 C481.5027124 661.40347656 481.1616748 662.06476562 480.81030273 662.74609375 C471.42527526 680.29377389 455.88764493 692.58147226 437.03125 698.4296875 C429.35412988 700.75566036 422.24336994 701.64016742 414.26371956 701.62640858 C413.33467288 701.62876081 412.40562621 701.63111304 411.4484266 701.63353655 C408.32401462 701.64021271 405.19964435 701.63976874 402.07522583 701.63935852 C399.81693454 701.64265801 397.55864384 701.64638376 395.30035388 701.6505 C389.0853349 701.66051852 382.87032558 701.66423656 376.65529966 701.66688931 C370.6434592 701.67039206 364.63162603 701.67853944 358.61979016 701.68643325 C342.5124195 701.7072671 326.40504702 701.71774614 310.29766603 701.72656285 C302.67504742 701.73077125 295.0524296 701.73599301 287.42981166 701.74124738 C261.32831704 701.75913749 235.22682218 701.77413238 209.12532234 701.78156757 C207.48695582 701.78204233 205.8485893 701.78251822 204.21022277 701.78299524 C203.39775308 701.78323161 202.58528339 701.78346799 201.74819341 701.78371153 C197.63193362 701.7849127 193.51567384 701.78612816 189.39941406 701.78735352 C188.58253489 701.78759367 187.76565571 701.78783382 186.92402262 701.78808124 C160.44844254 701.79597134 133.9729073 701.81939724 107.4973468 701.85190946 C79.49547501 701.88623311 51.49362946 701.9059211 23.49173629 701.90921181 C20.41568302 701.90962934 17.33962976 701.9101089 14.26357651 701.91063499 C13.50618466 701.91075819 12.74879282 701.91088138 11.96844971 701.9110083 C-0.20331925 701.91333725 -12.375036 701.92898023 -24.54678638 701.94947684 C-36.79021469 701.96976645 -49.03358052 701.97519735 -61.27702253 701.96570621 C-67.90576745 701.96095989 -74.53437914 701.96304996 -81.16311073 701.98246765 C-87.23812653 702.00010931 -93.31285019 701.99909304 -99.38786913 701.98357036 C-101.57908061 701.98119585 -103.77031237 701.98550955 -105.96149288 701.99739901 C-121.60520441 702.07698665 -136.38331233 701.08075033 -150.46875 693.4921875 C-151.26410156 693.07324219 -152.05945313 692.65429688 -152.87890625 692.22265625 C-159.54575958 688.48221149 -165.0297665 683.83914082 -170.46875 678.4921875 C-171.41041016 677.56986328 -171.41041016 677.56986328 -172.37109375 676.62890625 C-185.97303888 662.22503238 -191.64320142 642.95760837 -191.60017776 623.52237606 C-191.60325672 622.21353474 -191.60325672 622.21353474 -191.60639787 620.87825218 C-191.61204672 617.95804063 -191.61061324 615.03787656 -191.60919189 612.11766052 C-191.61177674 610.00129853 -191.61479023 607.88493703 -191.6181953 605.7685762 C-191.62625447 599.95519883 -191.62805426 594.14183381 -191.62879276 588.32845151 C-191.63064519 582.05762297 -191.63819347 575.7868008 -191.64492798 569.51597595 C-191.65921175 555.09034473 -191.66503678 540.66471673 -191.66961992 526.23907975 C-191.67195784 519.10664067 -191.6755607 511.97420239 -191.6793153 504.84176393 C-191.6921489 480.41467187 -191.70286835 455.98758025 -191.7063179 431.56048489 C-191.70653953 430.02786086 -191.70676132 428.49523684 -191.70698325 426.96261281 C-191.70720389 425.42634354 -191.70742437 423.89007427 -191.7076447 422.35380501 C-191.70808725 419.27192144 -191.70853436 416.19003787 -191.70898438 413.1081543 C-191.70909377 412.34402963 -191.70920316 411.57990496 -191.70931586 410.792625 C-191.71294575 386.02099254 -191.72886421 361.24938936 -191.75217474 336.47776812 C-191.77678944 310.27220753 -191.79049149 284.06666368 -191.79168582 257.8610912 C-191.79185727 254.98252395 -191.79207269 252.10395672 -191.79232025 249.22538948 C-191.7924039 248.16225548 -191.7924039 248.16225548 -191.79248925 247.07764403 C-191.79363824 235.68871716 -191.80464727 224.29982042 -191.81920731 212.91090371 C-191.83359765 201.45636467 -191.83654317 190.00187814 -191.82876733 178.5473299 C-191.82486417 172.34603721 -191.82577427 166.14484558 -191.83982468 159.94356537 C-191.85258321 154.26039189 -191.8513488 148.57739521 -191.83923396 142.89422191 C-191.83728037 140.84440791 -191.84033967 138.7945813 -191.84907833 136.744785 C-191.90721725 122.17856906 -191.48127254 107.97356733 -184.78125 94.6796875 C-184.26123413 93.61451904 -184.26123413 93.61451904 -183.73071289 92.52783203 C-180.70219679 86.53638466 -177.0395573 81.41819046 -172.46875 76.4921875 C-171.95183594 75.88503906 -171.43492187 75.27789062 -170.90234375 74.65234375 C-160.21059761 62.83515064 -142.51452512 54.26037615 -126.6973877 53.25167847 C-125.40055054 53.25611969 -124.10371338 53.26056091 -122.76757812 53.26513672 C-122.04464569 53.26484467 -121.32171326 53.26455261 -120.57687378 53.26425171 C-118.21778821 53.2656308 -115.85902951 53.28112388 -113.5 53.296875 C-111.85233737 53.3006102 -110.20467249 53.30345478 -108.55700684 53.30545044 C-104.24322256 53.31304698 -99.92957528 53.33266081 -95.61584473 53.3548584 C-91.20485283 53.37540302 -86.79383856 53.3844705 -82.3828125 53.39453125 C-73.74472915 53.41591086 -65.10675667 53.44999815 -56.46875 53.4921875 C-56.49231567 52.40502441 -56.49231567 52.40502441 -56.51635742 51.29589844 C-56.57953143 47.94474401 -56.61799886 44.59371553 -56.65625 41.2421875 C-56.68138672 40.10265625 -56.70652344 38.963125 -56.73242188 37.7890625 C-56.84811182 24.21477506 -54.23799821 13.62972964 -44.73828125 3.6796875 C-32.15185807 -7.84106598 -14.48317268 -8.84573521 0 0 Z " fill="#FEFCF8" transform="translate(362.46875,159.5078125)"/>
<path d="M0 0 C8.83974169 6.33514821 12.11325456 13.23820119 15.53125 23.4921875 C15.53125 33.3921875 15.53125 43.2921875 15.53125 53.4921875 C103.64125 53.4921875 191.75125 53.4921875 282.53125 53.4921875 C282.53125 43.9221875 282.53125 34.3521875 282.53125 24.4921875 C287.1051287 11.91402108 292.69932211 1.87472758 305.15625 -3.9453125 C314.47738956 -7.27224231 325.55731121 -6.65806342 334.53125 -2.5078125 C342.8032641 2.32882963 349.29875481 9.41701757 352.73730469 18.37109375 C354.37904178 24.82495814 353.93684342 31.507403 353.78125 38.1171875 C353.76114241 39.61325718 353.74289921 41.10935314 353.7265625 42.60546875 C353.68293115 46.23492988 353.61414303 49.86338569 353.53125 53.4921875 C354.414711 53.48552567 355.298172 53.47886383 356.20840454 53.47200012 C364.59221618 53.41153363 372.97595308 53.36603419 381.35993385 53.33675098 C385.66876257 53.3211894 389.97740897 53.30012823 394.28613281 53.26586914 C398.45533376 53.23293224 402.62436094 53.2152633 406.7936821 53.20755577 C408.37305812 53.20207312 409.95242617 53.19136981 411.53172684 53.17499733 C434.21026618 52.94954597 453.52248908 59.01922196 470.34375 74.7421875 C482.22188425 87.27416401 489.87549416 104.34770408 489.78851891 121.63379002 C489.79202498 122.52492301 489.79553105 123.416056 489.79914337 124.33419302 C489.80844069 127.31763031 489.80353831 130.30087169 489.79867554 133.28431702 C489.80241264 135.44605287 489.80701441 137.60778738 489.81240618 139.76951975 C489.82464432 145.70832748 489.82437474 151.64707891 489.82201743 157.58589637 C489.82160947 163.99170099 489.83264656 170.3974875 489.84213257 176.80328369 C489.85874857 189.35364864 489.86426833 201.90399421 489.86535732 214.45436919 C489.86627682 224.65714255 489.87039567 234.85990982 489.87675858 245.0626812 C489.87855371 248.00083476 489.88033334 250.93898832 489.88210833 253.87714189 C489.88277148 254.97284057 489.88277148 254.97284057 489.88344802 256.09067458 C489.89575547 276.63596775 489.90364926 297.18125881 489.90276146 317.72655582 C489.9027303 318.50105106 489.90269914 319.27554629 489.90266704 320.07351107 C489.90250083 323.99885339 489.90230275 327.92419571 489.90209763 331.84953804 C489.90203779 333.018888 489.90203779 333.018888 489.90197675 334.21186121 C489.90189587 335.78833584 489.90181228 337.36481048 489.90172596 338.94128512 C489.90050091 363.45949701 489.91550559 387.97765355 489.94287109 412.49584961 C489.97361465 440.05187955 489.99080217 467.60787313 489.98894465 495.1639213 C489.98879539 498.10427535 489.98869798 501.04462939 489.98863602 503.98498344 C489.98860105 505.07093943 489.98860105 505.07093943 489.98856538 506.17883391 C489.98850392 517.81324412 490.00125835 529.44760617 490.01850055 541.08200207 C490.0354823 552.78299852 490.03706892 564.48390904 490.0242819 576.18491281 C490.01775479 582.51989876 490.01762609 588.85471073 490.0349884 595.1896801 C490.05073522 600.9950289 490.04783864 606.80006601 490.03042014 612.60540729 C490.02735381 614.69963523 490.03096866 616.79388653 490.04214029 618.88808692 C490.11634061 633.79081584 488.93319013 647.29613186 481.84375 660.7421875 C481.5027124 661.40347656 481.1616748 662.06476562 480.81030273 662.74609375 C471.42527526 680.29377389 455.88764493 692.58147226 437.03125 698.4296875 C429.35412988 700.75566036 422.24336994 701.64016742 414.26371956 701.62640858 C413.33467288 701.62876081 412.40562621 701.63111304 411.4484266 701.63353655 C408.32401462 701.64021271 405.19964435 701.63976874 402.07522583 701.63935852 C399.81693454 701.64265801 397.55864384 701.64638376 395.30035388 701.6505 C389.0853349 701.66051852 382.87032558 701.66423656 376.65529966 701.66688931 C370.6434592 701.67039206 364.63162603 701.67853944 358.61979016 701.68643325 C342.5124195 701.7072671 326.40504702 701.71774614 310.29766603 701.72656285 C302.67504742 701.73077125 295.0524296 701.73599301 287.42981166 701.74124738 C261.32831704 701.75913749 235.22682218 701.77413238 209.12532234 701.78156757 C207.48695582 701.78204233 205.8485893 701.78251822 204.21022277 701.78299524 C203.39775308 701.78323161 202.58528339 701.78346799 201.74819341 701.78371153 C197.63193362 701.7849127 193.51567384 701.78612816 189.39941406 701.78735352 C188.58253489 701.78759367 187.76565571 701.78783382 186.92402262 701.78808124 C160.44844254 701.79597134 133.9729073 701.81939724 107.4973468 701.85190946 C79.49547501 701.88623311 51.49362946 701.9059211 23.49173629 701.90921181 C20.41568302 701.90962934 17.33962976 701.9101089 14.26357651 701.91063499 C13.50618466 701.91075819 12.74879282 701.91088138 11.96844971 701.9110083 C-0.20331925 701.91333725 -12.375036 701.92898023 -24.54678638 701.94947684 C-36.79021469 701.96976645 -49.03358052 701.97519735 -61.27702253 701.96570621 C-67.90576745 701.96095989 -74.53437914 701.96304996 -81.16311073 701.98246765 C-87.23812653 702.00010931 -93.31285019 701.99909304 -99.38786913 701.98357036 C-101.57908061 701.98119585 -103.77031237 701.98550955 -105.96149288 701.99739901 C-121.60520441 702.07698665 -136.38331233 701.08075033 -150.46875 693.4921875 C-151.26410156 693.07324219 -152.05945313 692.65429688 -152.87890625 692.22265625 C-159.54575958 688.48221149 -165.0297665 683.83914082 -170.46875 678.4921875 C-171.41041016 677.56986328 -171.41041016 677.56986328 -172.37109375 676.62890625 C-185.97303888 662.22503238 -191.64320142 642.95760837 -191.60017776 623.52237606 C-191.60325672 622.21353474 -191.60325672 622.21353474 -191.60639787 620.87825218 C-191.61204672 617.95804063 -191.61061324 615.03787656 -191.60919189 612.11766052 C-191.61177674 610.00129853 -191.61479023 607.88493703 -191.6181953 605.7685762 C-191.62625447 599.95519883 -191.62805426 594.14183381 -191.62879276 588.32845151 C-191.63064519 582.05762297 -191.63819347 575.7868008 -191.64492798 569.51597595 C-191.65921175 555.09034473 -191.66503678 540.66471673 -191.66961992 526.23907975 C-191.67195784 519.10664067 -191.6755607 511.97420239 -191.6793153 504.84176393 C-191.6921489 480.41467187 -191.70286835 455.98758025 -191.7063179 431.56048489 C-191.70653953 430.02786086 -191.70676132 428.49523684 -191.70698325 426.96261281 C-191.70720389 425.42634354 -191.70742437 423.89007427 -191.7076447 422.35380501 C-191.70808725 419.27192144 -191.70853436 416.19003787 -191.70898438 413.1081543 C-191.70909377 412.34402963 -191.70920316 411.57990496 -191.70931586 410.792625 C-191.71294575 386.02099254 -191.72886421 361.24938936 -191.75217474 336.47776812 C-191.77678944 310.27220753 -191.79049149 284.06666368 -191.79168582 257.8610912 C-191.79185727 254.98252395 -191.79207269 252.10395672 -191.79232025 249.22538948 C-191.7924039 248.16225548 -191.7924039 248.16225548 -191.79248925 247.07764403 C-191.79363824 235.68871716 -191.80464727 224.29982042 -191.81920731 212.91090371 C-191.83359765 201.45636467 -191.83654317 190.00187814 -191.82876733 178.5473299 C-191.82486417 172.34603721 -191.82577427 166.14484558 -191.83982468 159.94356537 C-191.85258321 154.26039189 -191.8513488 148.57739521 -191.83923396 142.89422191 C-191.83728037 140.84440791 -191.84033967 138.7945813 -191.84907833 136.744785 C-191.90721725 122.17856906 -191.48127254 107.97356733 -184.78125 94.6796875 C-184.26123413 93.61451904 -184.26123413 93.61451904 -183.73071289 92.52783203 C-180.70219679 86.53638466 -177.0395573 81.41819046 -172.46875 76.4921875 C-171.95183594 75.88503906 -171.43492187 75.27789062 -170.90234375 74.65234375 C-160.21059761 62.83515064 -142.51452512 54.26037615 -126.6973877 53.25167847 C-125.40055054 53.25611969 -124.10371338 53.26056091 -122.76757812 53.26513672 C-122.04464569 53.26484467 -121.32171326 53.26455261 -120.57687378 53.26425171 C-118.21778821 53.2656308 -115.85902951 53.28112388 -113.5 53.296875 C-111.85233737 53.3006102 -110.20467249 53.30345478 -108.55700684 53.30545044 C-104.24322256 53.31304698 -99.92957528 53.33266081 -95.61584473 53.3548584 C-91.20485283 53.37540302 -86.79383856 53.3844705 -82.3828125 53.39453125 C-73.74472915 53.41591086 -65.10675667 53.44999815 -56.46875 53.4921875 C-56.49231567 52.40502441 -56.49231567 52.40502441 -56.51635742 51.29589844 C-56.57953143 47.94474401 -56.61799886 44.59371553 -56.65625 41.2421875 C-56.68138672 40.10265625 -56.70652344 38.963125 -56.73242188 37.7890625 C-56.84811182 24.21477506 -54.23799821 13.62972964 -44.73828125 3.6796875 C-32.15185807 -7.84106598 -14.48317268 -8.84573521 0 0 Z M-166.46875 218.4921875 C-166.530625 286.7196875 -166.5925 354.9471875 -166.65625 425.2421875 C-166.68356201 446.79885742 -166.71087402 468.35552734 -166.73901367 490.56542969 C-166.74904591 509.85977101 -166.74904591 509.85977101 -166.75508118 529.15411377 C-166.75788028 537.75944472 -166.76889119 546.36471734 -166.78547668 554.97003174 C-166.80457778 564.89523515 -166.81325662 574.82038254 -166.80908485 584.74560447 C-166.8072782 589.82236696 -166.81013555 594.89900426 -166.82639539 599.97574377 C-166.84102104 604.57021408 -166.84170279 609.16447096 -166.83145332 613.75895119 C-166.83018526 615.4162337 -166.83395461 617.07352975 -166.84339774 618.73078585 C-166.93569166 635.94591348 -163.90259713 650.52659462 -151.71875 663.42578125 C-137.36179379 676.61124971 -121.50036377 677.08157837 -103.10606384 677.00012207 C-100.83475217 677.00473545 -98.5634435 677.01109129 -96.29214102 677.01903105 C-90.0737325 677.03568713 -83.85557039 677.02749476 -77.63716114 677.01508617 C-71.61241392 677.00695472 -65.58771759 677.01763388 -59.56298046 677.02767564 C-46.48612113 677.04870149 -33.40934014 677.04692795 -20.33247343 677.03535999 C-8.88914202 677.02528708 2.55416072 677.02267594 13.99749565 677.02745056 C14.75735127 677.0277561 15.51720688 677.02806164 16.30008843 677.02837644 C19.38478748 677.02962185 22.46948652 677.03089545 25.55418555 677.0322155 C54.47402299 677.04444367 83.39381062 677.03336985 112.31364037 677.01182791 C137.99403237 676.99284443 163.67434502 676.9945465 189.35473633 677.01367188 C218.22409562 677.03510049 247.09341093 677.04357828 275.96277708 677.03122282 C279.04145808 677.02994 282.12013909 677.02868863 285.19882011 677.02745056 C286.33584889 677.0269761 286.33584889 677.0269761 287.49584794 677.02649205 C298.93127077 677.02194651 310.36666174 677.0272551 321.80208015 677.03736877 C334.80685072 677.04881325 347.81153088 677.04593056 360.81629021 677.0242458 C367.45065406 677.01354759 374.08489244 677.00961038 380.71926498 677.02284241 C386.79442529 677.03477582 392.86927562 677.02818752 398.94440787 677.0069322 C401.14004289 677.00247027 403.33570418 677.00472315 405.53132225 677.01443535 C423.27776956 677.08690394 437.59915048 674.89246477 451.21875 662.4921875 C463.67744576 649.39401886 465.99050438 632.72759532 465.89201355 615.4523468 C465.89332776 613.7393123 465.89596206 612.0262784 465.89979553 610.31324768 C465.90649746 605.61972061 465.89452125 600.92640039 465.87946819 596.23289956 C465.86633518 591.08866632 465.8707542 585.94444208 465.87292194 580.80019665 C465.8745147 570.82172136 465.86068438 560.84332729 465.84141796 550.86487285 C465.81979357 539.31888352 465.81743237 527.77294276 465.81506348 516.22692871 C465.79932104 485.75283546 465.7574376 455.27876026 465.71875 424.8046875 C465.656875 356.7215625 465.595 288.6384375 465.53125 218.4921875 C256.97125 218.4921875 48.41125 218.4921875 -166.46875 218.4921875 Z " fill="#3A3D43" transform="translate(362.46875,159.5078125)"/>
<path d="M0 0 C1.59330998 1.48939846 3.17626775 2.98993005 4.75 4.5 C5.69101562 5.37785156 6.63203125 6.25570312 7.6015625 7.16015625 C28.2148953 26.73610797 45.39560582 54.66767261 51.75 82.5 C52.57387207 82.47905273 53.39774414 82.45810547 54.24658203 82.43652344 C71.55445215 82.05623648 87.83476621 82.32602072 104.75 86.5 C105.48782715 86.67128418 106.2256543 86.84256836 106.98583984 87.01904297 C124.05850282 91.05369499 140.75779024 98.92717584 154.75 109.5 C155.62011719 110.1496875 156.49023438 110.799375 157.38671875 111.46875 C187.35927965 134.92173196 206.45378107 167.64506333 211.44091797 205.47851562 C213.05077103 221.21591018 212.35244872 237.09740429 208.75 252.5 C208.58371094 253.23089844 208.41742187 253.96179688 208.24609375 254.71484375 C199.9373483 290.22703727 177.98107717 321.34863603 146.95166016 340.61669922 C134.5359031 348.16142703 121.77198181 353.71560579 107.75 357.5 C106.64253418 357.80067383 106.64253418 357.80067383 105.51269531 358.10742188 C71.14688364 367.06220407 33.10146058 360.99279467 2.3125 343.625 C-18.72361368 330.99344407 -34.85290119 313.9720305 -47.96655273 293.43188477 C-49.32082947 291.39338528 -50.76462802 289.44449187 -52.25 287.5 C-53.31734375 287.88671875 -54.3846875 288.2734375 -55.484375 288.671875 C-100.58988217 304.59116457 -146.73823627 300.69695932 -189.83740234 280.67333984 C-228.81875497 261.71519567 -259.78724892 225.96322171 -274.36791992 185.35498047 C-276.08283953 180.28891154 -277.58053532 175.15580478 -279 170 C-279.19907959 169.2894043 -279.39815918 168.57880859 -279.60327148 167.84667969 C-282.95534434 154.93349906 -283.60295216 141.74471734 -283.56567383 128.47363281 C-283.5625108 126.13298976 -283.58611156 123.79361381 -283.61132812 121.453125 C-283.67146031 107.25534072 -281.89022958 93.27012587 -277.625 79.6875 C-277.24541138 78.46184326 -277.24541138 78.46184326 -276.8581543 77.21142578 C-262.47308136 32.34501911 -231.85334311 -3.78063165 -189.98266602 -25.33349609 C-175.09060998 -32.73702465 -159.59670173 -37.56783905 -143.25 -40.5 C-142.00734375 -40.72558594 -140.7646875 -40.95117188 -139.484375 -41.18359375 C-89.05955382 -48.83170993 -38.10643437 -33.5555067 0 0 Z " fill="#FDC65A" transform="translate(563.25,459.5)"/>
<path d="M0 0 C1.62094926 0.00747666 3.24190767 0.01316284 4.86286926 0.01715088 C9.09296398 0.03229532 13.32249391 0.07147767 17.55236816 0.1159668 C21.88314172 0.1571637 26.21400811 0.1752136 30.54492188 0.1953125 C39.01588183 0.23798525 47.48638594 0.30609728 55.95703125 0.390625 C55.98921501 1.51264565 55.98921501 1.51264565 56.02204895 2.65733337 C56.12440155 6.07781612 56.23788966 9.49784425 56.3515625 12.91796875 C56.38511841 14.0946814 56.41867432 15.27139404 56.45324707 16.48376465 C56.89616609 29.30593293 59.21994806 40.80658301 68.734375 50.1328125 C76.30485127 56.35639422 85.14867559 59.13656765 94.89453125 58.78125 C102.40653463 57.8230863 109.35196834 55.62201705 114.95703125 50.390625 C115.61703125 50.390625 116.27703125 50.390625 116.95703125 50.390625 C117.37662109 49.51470703 117.37662109 49.51470703 117.8046875 48.62109375 C119.21536158 45.89060256 120.90878851 43.41422801 122.640625 40.87890625 C129.75639827 27.42861671 127.38893822 16.86532276 127.95703125 0.390625 C216.06703125 0.390625 304.17703125 0.390625 394.95703125 0.390625 C395.28703125 9.960625 395.61703125 19.530625 395.95703125 29.390625 C400.64555596 42.28406795 405.17753858 50.39703647 417.51953125 56.203125 C427.00903239 59.91436555 436.08591093 59.55370499 445.45703125 55.64453125 C454.47868323 51.11960893 460.08175464 44.53736347 463.76953125 35.140625 C465.37413185 30.0734652 466.09033876 25.52470714 466.2734375 20.21484375 C466.3362793 18.47944336 466.3362793 18.47944336 466.40039062 16.70898438 C466.45936523 14.91170898 466.45936523 14.91170898 466.51953125 13.078125 C466.56271484 11.86060547 466.60589844 10.64308594 466.65039062 9.38867188 C466.75624621 6.3894303 466.85832851 3.39010909 466.95703125 0.390625 C476.12007729 0.29741085 485.28295686 0.22660189 494.44637585 0.18337631 C498.70262239 0.16261656 502.95854146 0.13451518 507.21459961 0.08886719 C511.3319394 0.04498992 515.44896681 0.02140091 519.5665226 0.01111603 C521.12720969 0.00379894 522.68788221 -0.01048657 524.24843407 -0.03229523 C539.8464192 -0.24134885 552.4430331 2.54039416 564.140625 13.421875 C589.33055303 39.70701729 577.95703125 84.51421295 577.95703125 115.390625 C369.39703125 115.390625 160.83703125 115.390625 -54.04296875 115.390625 C-54.04296875 28.16207108 -54.04296875 28.16207108 -40.52734375 13.78515625 C-28.47078833 2.16460834 -16.17057578 -0.22122533 0 0 Z " fill="#FE7428" transform="translate(250.04296875,237.609375)"/>
<path d="M0 0 C21.1032244 19.09365284 38.11203751 43.79975858 44 72 C43.44763672 72.22026855 42.89527344 72.44053711 42.32617188 72.66748047 C24.08248722 80.01710074 8.49196879 88.6472623 -6 102 C-6.94488281 102.86238281 -7.88976562 103.72476563 -8.86328125 104.61328125 C-28.23408252 123.10732772 -41.47539944 147.8626297 -47 174 C-47.26816528 175.2674707 -47.26816528 175.2674707 -47.54174805 176.56054688 C-49.15668782 185.07189094 -49.35295441 193.49308588 -49.3125 202.125 C-49.3117598 203.21300903 -49.3117598 203.21300903 -49.31100464 204.32299805 C-49.29049859 214.17568088 -48.78756536 223.67650092 -46.75390625 233.34375 C-45.8868373 237.54880976 -45.41022967 241.73018773 -45 246 C-84.73656936 259.18861432 -125.1435342 258.40576796 -163.09570312 239.95947266 C-197.01509343 222.86931831 -224.04397377 192.12644771 -236 156 C-245.55812959 123.17124399 -246.15798134 89.26596345 -234 57 C-233.73703125 56.30181152 -233.4740625 55.60362305 -233.203125 54.88427734 C-227.32739493 39.69450702 -218.75276051 26.21232765 -208 14 C-206.81277344 12.61361328 -206.81277344 12.61361328 -205.6015625 11.19921875 C-199.91456492 4.7138887 -193.86542078 -0.7898783 -187 -6 C-186.47422363 -6.40605469 -185.94844727 -6.81210937 -185.40673828 -7.23046875 C-176.4901295 -14.07926723 -167.23844877 -19.37741679 -157 -24 C-155.80890625 -24.54527344 -154.6178125 -25.09054687 -153.390625 -25.65234375 C-146.14513581 -28.76094337 -138.90076766 -30.95655698 -131.25 -32.8125 C-130.39897705 -33.01963623 -129.5479541 -33.22677246 -128.67114258 -33.44018555 C-83.71254402 -43.73316716 -34.36998533 -30.24558709 0 0 Z " fill="#F0F0F0" transform="translate(547,478)"/>
<path d="M0 0 C1.59330998 1.48939846 3.17626775 2.98993005 4.75 4.5 C5.69101562 5.37785156 6.63203125 6.25570312 7.6015625 7.16015625 C28.2148953 26.73610797 45.39560582 54.66767261 51.75 82.5 C52.57387207 82.47905273 53.39774414 82.45810547 54.24658203 82.43652344 C71.55445215 82.05623648 87.83476621 82.32602072 104.75 86.5 C105.48782715 86.67128418 106.2256543 86.84256836 106.98583984 87.01904297 C124.05850282 91.05369499 140.75779024 98.92717584 154.75 109.5 C155.62011719 110.1496875 156.49023438 110.799375 157.38671875 111.46875 C187.35927965 134.92173196 206.45378107 167.64506333 211.44091797 205.47851562 C213.05077103 221.21591018 212.35244872 237.09740429 208.75 252.5 C208.58371094 253.23089844 208.41742187 253.96179688 208.24609375 254.71484375 C199.9373483 290.22703727 177.98107717 321.34863603 146.95166016 340.61669922 C134.5359031 348.16142703 121.77198181 353.71560579 107.75 357.5 C106.64253418 357.80067383 106.64253418 357.80067383 105.51269531 358.10742188 C71.14688364 367.06220407 33.10146058 360.99279467 2.3125 343.625 C-18.72361368 330.99344407 -34.85290119 313.9720305 -47.96655273 293.43188477 C-49.32082947 291.39338528 -50.76462802 289.44449187 -52.25 287.5 C-53.31734375 287.88671875 -54.3846875 288.2734375 -55.484375 288.671875 C-100.58988217 304.59116457 -146.73823627 300.69695932 -189.83740234 280.67333984 C-228.81875497 261.71519567 -259.78724892 225.96322171 -274.36791992 185.35498047 C-276.08283953 180.28891154 -277.58053532 175.15580478 -279 170 C-279.19907959 169.2894043 -279.39815918 168.57880859 -279.60327148 167.84667969 C-282.95534434 154.93349906 -283.60295216 141.74471734 -283.56567383 128.47363281 C-283.5625108 126.13298976 -283.58611156 123.79361381 -283.61132812 121.453125 C-283.67146031 107.25534072 -281.89022958 93.27012587 -277.625 79.6875 C-277.24541138 78.46184326 -277.24541138 78.46184326 -276.8581543 77.21142578 C-262.47308136 32.34501911 -231.85334311 -3.78063165 -189.98266602 -25.33349609 C-175.09060998 -32.73702465 -159.59670173 -37.56783905 -143.25 -40.5 C-142.00734375 -40.72558594 -140.7646875 -40.95117188 -139.484375 -41.18359375 C-89.05955382 -48.83170993 -38.10643437 -33.5555067 0 0 Z M-141.25 -15.5 C-142.25353516 -15.30664062 -142.25353516 -15.30664062 -143.27734375 -15.109375 C-153.76195305 -13.03169096 -163.51072946 -9.91781344 -173.25 -5.5 C-173.90355469 -5.20609375 -174.55710937 -4.9121875 -175.23046875 -4.609375 C-209.22356345 10.90778235 -236.86080131 40.07234789 -250.28735352 75.01123047 C-264.18535515 112.67319027 -262.28631554 154.13561658 -245.64453125 190.5703125 C-240.46301464 201.46435109 -234.18905671 211.3853522 -226.25 220.5 C-225.5178125 221.34175781 -224.785625 222.18351563 -224.03125 223.05078125 C-221.80277484 225.56544757 -219.5390756 228.04046132 -217.25 230.5 C-216.62609375 231.17804688 -216.0021875 231.85609375 -215.359375 232.5546875 C-191.39895811 257.62251861 -155.63829329 272.48258994 -121.2265625 273.78515625 C-100.18439232 274.24319714 -81.17963291 271.11466871 -61.25 264.5 C-61.78815102 258.89873816 -62.6530106 253.51177571 -63.8125 248 C-67.52631309 227.57290735 -66.96856234 204.43273743 -61.25 184.5 C-61.06808105 183.83452148 -60.88616211 183.16904297 -60.69873047 182.48339844 C-51.01479001 147.74583185 -26.24125253 118.43018059 4.75 100.6875 C12.13358325 96.57036163 19.82244986 93.40449035 27.75 90.5 C22.86554721 65.93818025 8.72988773 44.46339059 -8.25 26.5 C-8.99636719 25.68917969 -9.74273438 24.87835938 -10.51171875 24.04296875 C-34.23012356 -0.85155531 -69.88100115 -16.36191985 -104.13012695 -17.60449219 C-116.61899118 -17.86545053 -128.95251987 -17.89419967 -141.25 -15.5 Z M37.75 112.5 C36.78441162 112.83741211 36.78441162 112.83741211 35.79931641 113.18164062 C18.41171078 119.34992877 4.15752534 128.90294683 -9.25 141.5 C-9.84167969 142.015625 -10.43335938 142.53125 -11.04296875 143.0625 C-30.99678873 161.26265884 -40.96862898 190.11506911 -42.60546875 216.43359375 C-43.35374475 235.482615 -39.71288858 255.36216869 -31.25 272.5 C-30.93047363 273.14727051 -30.61094727 273.79454102 -30.28173828 274.46142578 C-25.16562853 284.62802298 -18.95732868 293.15531182 -11.25 301.5 C-10.64542969 302.17417969 -10.04085937 302.84835937 -9.41796875 303.54296875 C7.95201518 322.01178378 36.12192187 335.58762732 61.43237305 336.6081543 C93.8215311 337.25116084 122.05271304 330.23180274 147.75 309.5 C148.52988281 308.88640625 149.30976562 308.2728125 150.11328125 307.640625 C171.49415114 289.86753955 183.78048799 261.72986484 186.75 234.5 C188.410474 201.7179115 181.68435229 171.70902131 159.09179688 146.66162109 C143.59821047 129.99210688 124.95775704 117.27021652 102.75 111.5 C101.76314209 111.24033447 100.77628418 110.98066895 99.75952148 110.71313477 C90.38572211 108.46109668 81.51449879 107.97971593 71.9375 108.0625 C71.18987396 108.06554138 70.44224792 108.06858276 69.67196655 108.07171631 C58.56689826 108.13852934 48.29805774 108.73200584 37.75 112.5 Z " fill="#3A3D43" transform="translate(563.25,459.5)"/>
<path d="M0 0 C0.85207031 -0.03738281 1.70414063 -0.07476563 2.58203125 -0.11328125 C6.13645974 0.46757738 7.62423707 1.80289636 10.1875 4.3125 C11.63000604 6.39773554 12.91960822 8.43931891 14.1875 10.625 C17.77774332 16.60873886 21.57921401 22.42626065 25.5078125 28.19140625 C25.98112 28.88601456 26.45442749 29.58062286 26.94207764 30.29627991 C28.884207 33.14190081 30.82939837 35.9853475 32.78222656 38.82363892 C34.17358458 40.8460881 35.55966679 42.87207234 36.9453125 44.8984375 C37.58679733 45.82403221 37.58679733 45.82403221 38.24124146 46.76832581 C41.1875 51.0863608 41.1875 51.0863608 41.1875 53.3125 C41.8475 53.3125 42.5075 53.3125 43.1875 53.3125 C43.42726563 52.62414062 43.66703125 51.93578125 43.9140625 51.2265625 C45.42669063 47.76514965 47.42788555 44.782982 49.5625 41.6875 C53.59977635 35.73912668 57.49347407 29.71568268 61.3125 23.625 C64.75980422 18.14567003 68.20868108 12.66919263 71.75 7.25 C72.64912109 5.87134766 72.64912109 5.87134766 73.56640625 4.46484375 C75.1875 2.3125 75.1875 2.3125 78.1875 0.3125 C83.27496258 -0.3647783 87.74432364 -0.51217221 92.25 2.0625 C95.10661186 5.37985571 96.05529366 7.16671173 96.5625 11.5625 C95.60584968 21.12900321 88.34658973 29.44418608 83.1875 37.3125 C81.2063558 40.34361432 79.22648359 43.37555467 77.24731445 46.40795898 C75.88408528 48.49570157 74.51936082 50.58246862 73.15307617 52.66821289 C72.52506104 53.62848389 71.8970459 54.58875488 71.25 55.578125 C70.68410156 56.44211914 70.11820313 57.30611328 69.53515625 58.19628906 C68.17431665 60.2528452 68.17431665 60.2528452 67.1875 62.3125 C67.75670166 62.2810791 68.32590332 62.2496582 68.91235352 62.21728516 C71.5244879 62.09154618 74.13598494 62.01422162 76.75 61.9375 C77.64525391 61.88722656 78.54050781 61.83695313 79.46289062 61.78515625 C84.40156183 61.67661403 87.41755458 61.96567648 91.27734375 65.2109375 C94.08475471 67.94806962 95.10766413 69.49817414 95.5 73.5 C95.14389926 77.84442898 94.29702416 81.16400938 91.1875 84.3125 C84.42366035 88.52046346 76.96616292 87.64833393 69.25 87.5 C67.88478034 87.48492992 66.51954465 87.47124561 65.15429688 87.45898438 C61.83161904 87.42376164 58.50976819 87.37450041 55.1875 87.3125 C55.1875 90.9425 55.1875 94.5725 55.1875 98.3125 C56.05963135 98.29155273 56.9317627 98.27060547 57.83032227 98.24902344 C61.09377798 98.18048805 64.35645924 98.13052823 67.62036133 98.09277344 C69.02771134 98.07276754 70.43497938 98.04555338 71.84204102 98.01074219 C86.38284188 97.66023724 86.38284188 97.66023724 92.1875 102.3125 C94.61023399 105.20415024 95.13912808 106.93934516 95.625 110.6875 C95.06677584 115.31278593 93.87196938 117.50950171 91.1875 121.3125 C87.5993264 123.84968733 84.08111445 123.5418144 79.796875 123.5078125 C79.09226135 123.5049826 78.38764771 123.50215271 77.66168213 123.49923706 C75.4201124 123.48807801 73.17894814 123.46298193 70.9375 123.4375 C69.41406829 123.42746464 67.89063029 123.41833976 66.3671875 123.41015625 C62.64049414 123.38815291 58.91403667 123.35365272 55.1875 123.3125 C55.20780273 124.27381836 55.22810547 125.23513672 55.24902344 126.22558594 C55.27270996 128.11712402 55.27270996 128.11712402 55.296875 130.046875 C55.31717773 131.29694336 55.33748047 132.54701172 55.35839844 133.83496094 C55.12543854 138.57536211 54.16847183 140.66908999 51.1875 144.3125 C46.77967611 147.06035617 42.22556675 147.0912548 37.1875 146.3125 C33.84435282 144.66139466 31.7476553 142.40994712 30.0390625 139.0625 C29.01442016 135.75356326 28.99264838 132.9576552 29.0625 129.5 C29.08054687 128.33855469 29.09859375 127.17710937 29.1171875 125.98046875 C29.14039063 125.10003906 29.16359375 124.21960938 29.1875 123.3125 C28.28507568 123.3439209 27.38265137 123.3753418 26.45288086 123.40771484 C23.07748091 123.51049249 19.70376233 123.58543301 16.32739258 123.64208984 C14.87139517 123.67211041 13.41557631 123.71294228 11.96020508 123.76513672 C-1.68993226 124.24211994 -1.68993226 124.24211994 -6.24609375 120.4765625 C-9.02997127 117.55519274 -9.74356455 115.04321577 -10.125 111 C-9.74818959 106.55363718 -8.71476622 104.67301878 -5.8125 101.3125 C-1.35046537 98.59524046 1.92641026 97.95062713 7.1171875 98.01953125 C8.40625 98.02919922 9.6953125 98.03886719 11.0234375 98.04882812 C12.36979786 98.07388812 13.71615203 98.09928288 15.0625 98.125 C16.43227705 98.14006496 17.80207002 98.15375018 19.171875 98.16601562 C22.51082358 98.20128621 25.84895675 98.25058104 29.1875 98.3125 C29.1875 94.6825 29.1875 91.0525 29.1875 87.3125 C28.34566162 87.33344727 27.50382324 87.35439453 26.63647461 87.37597656 C23.48498648 87.44452962 20.33388094 87.49448263 17.18188477 87.53222656 C15.82303287 87.55222628 14.46426576 87.57943576 13.10571289 87.61425781 C-1.02166358 87.96705311 -1.02166358 87.96705311 -6.8125 83.3125 C-9.7866633 78.99516618 -10.4611549 75.50173924 -9.8125 70.3125 C-7.78583762 66.60859979 -6.33205484 64.65886989 -2.8125 62.3125 C-0.63598633 62.08544922 -0.63598633 62.08544922 1.85546875 62.1171875 C2.74814453 62.12363281 3.64082031 62.13007812 4.56054688 62.13671875 C5.48931641 62.15347656 6.41808594 62.17023437 7.375 62.1875 C8.31537109 62.19652344 9.25574219 62.20554687 10.22460938 62.21484375 C12.54582968 62.23840944 14.86653644 62.27130884 17.1875 62.3125 C16.69983154 61.58885254 16.21216309 60.86520508 15.7097168 60.11962891 C10.53724399 52.43310649 5.40495832 44.72094911 0.29888916 36.99017334 C-0.71066119 35.46622856 -1.72725514 33.94695575 -2.74462891 32.42822266 C-4.33248743 30.04983063 -5.88993603 27.65472934 -7.4375 25.25 C-7.89165283 24.5811377 -8.34580566 23.91227539 -8.8137207 23.22314453 C-12.02514011 18.12352057 -12.83474145 13.29196552 -11.8125 7.3125 C-8.99032177 2.13938168 -5.75501789 0.16393604 0 0 Z " fill="#3B3E45" transform="translate(592.8125,612.6875)"/>
<path d="M0 0 C4.05428236 2.10222049 6.3175426 3.77108112 8 8 C8.25726891 10.16210747 8.25726891 10.16210747 8.26742554 12.54074097 C8.27595551 13.4462973 8.28448547 14.35185364 8.29327393 15.28485107 C8.29236755 16.27092346 8.29146118 17.25699585 8.29052734 18.27294922 C8.29724457 19.31728119 8.30396179 20.36161316 8.31088257 21.43759155 C8.32989596 24.89333847 8.33378845 28.34889152 8.3359375 31.8046875 C8.34236299 34.2059843 8.34909116 36.6072803 8.35610962 39.00857544 C8.36809068 44.04398412 8.37178957 49.07932416 8.37060547 54.11474609 C8.37040221 60.56671426 8.39770814 67.01824229 8.43214989 73.47010612 C8.45438807 78.43036928 8.45844395 83.39052599 8.45738602 88.35083389 C8.45974647 90.72947838 8.46859487 93.1081256 8.48405075 95.48672104 C8.50364802 98.81421478 8.49789662 102.14075256 8.48583984 105.46826172 C8.49707886 106.45028564 8.50831787 107.43230957 8.51989746 108.4440918 C8.43691995 117.45696377 4.46376602 121.84017081 -1.77490234 128.04956055 C-2.34130936 128.62107849 -2.90771637 129.19259644 -3.49128723 129.78143311 C-5.35106282 131.65502409 -7.21808785 133.52117943 -9.0859375 135.38671875 C-10.38886067 136.69353239 -11.69156107 138.00056818 -12.99404907 139.30781555 C-15.71920145 142.04041217 -18.44817407 144.76912384 -21.1796875 147.49536133 C-24.67397668 150.98384891 -28.15675089 154.48358682 -31.63652611 157.98654461 C-34.32164921 160.68641801 -37.0136871 163.37931301 -39.70775223 166.070261 C-40.99465711 167.35767813 -42.27921019 168.6474507 -43.56132126 169.93964195 C-45.35588164 171.74657842 -47.15977808 173.54366457 -48.96630859 175.33862305 C-49.7520652 176.13584526 -49.7520652 176.13584526 -50.55369568 176.94917297 C-54.61513897 180.95351445 -59.08074275 184.42516821 -65 184.4375 C-69.22865911 184.26738153 -71.77322576 182.76580649 -75 180 C-77.57881695 175.71684383 -77.90925283 171.86777934 -77 167 C-73.18821892 160.72998094 -67.0348727 156.68476137 -61.15249634 152.54093933 C-42.02316664 138.97634373 -19.26676168 121.37756791 -14.94719887 97.07002163 C-11.4739314 72.20225418 -13.12310675 46.23188583 -15.36605835 21.30622864 C-15.47979955 19.9110147 -15.47979955 19.9110147 -15.59583855 18.48761463 C-15.73951981 16.76155952 -15.90485836 15.03710772 -16.09640694 13.31570721 C-16.44230194 9.01926883 -16.46774176 7.5947325 -13.69885254 4.07409668 C-9.03986698 0.49361707 -5.8855837 -0.9123211 0 0 Z " fill="#3A3D42" transform="translate(453,472)"/>
<path d="M0 0 C3.07469523 1.70251719 5.40613254 3.81226508 7 7 C7.11368286 9.50062207 7.16780591 11.97405531 7.17700195 14.47558594 C7.18357315 15.24652588 7.19014435 16.01746582 7.19691467 16.81176758 C7.21666375 19.36930433 7.2283147 21.92678229 7.23828125 24.484375 C7.24235678 25.35765694 7.2464323 26.23093887 7.25063133 27.1306839 C7.27150038 31.75411239 7.28579765 36.37751114 7.29516602 41.00097656 C7.30622354 45.773769 7.34061329 50.54609433 7.38033772 55.31872177 C7.40650247 58.99050759 7.41485779 62.66218219 7.41844749 66.33405304 C7.42331497 68.09309285 7.43493358 69.85212764 7.45348549 71.61107635 C7.47787125 74.07670394 7.47691318 76.54112431 7.4699707 79.00683594 C7.48278076 79.73018127 7.49559082 80.45352661 7.50878906 81.1987915 C7.45706122 86.25319087 6.14846308 89.09240254 3 93 C-0.41457004 95.59036348 -3.83282171 95.43108741 -8 95 C-11.99114698 92.89146952 -14.45256499 91.25552255 -16 87 C-16.20517203 84.39731737 -16.30400763 81.90034269 -16.30639648 79.29736328 C-16.31472 78.52613129 -16.32304352 77.75489929 -16.33161926 76.96029663 C-16.35569261 74.41358373 -16.36448788 71.86712707 -16.37109375 69.3203125 C-16.38006187 67.54678267 -16.38918375 65.77325362 -16.39845276 63.99972534 C-16.41493787 60.28251304 -16.42264204 56.56539077 -16.42553711 52.84814453 C-16.43092154 48.09095145 -16.46860568 43.33460725 -16.51428127 38.57765388 C-16.54406078 34.91442799 -16.55126085 31.25140633 -16.55226326 27.58806992 C-16.55646353 25.83460475 -16.56889015 24.08113887 -16.58978081 22.32779312 C-16.61671595 19.87170671 -16.6118649 17.41758574 -16.59936523 14.96142578 C-16.61419952 14.24122253 -16.62903381 13.52101929 -16.64431763 12.7789917 C-16.5626 7.12450289 -14.86214569 4.82837011 -11 1 C-7.51556578 -0.74221711 -3.80112955 -0.58675154 0 0 Z " fill="#A7B2BF" transform="translate(347,178)"/>
<path d="M0 0 C3.59032243 2.13891549 5.52292533 4.12496579 7 8 C7.19491526 10.54847857 7.28358446 12.98711806 7.2746582 15.53491211 C7.2823246 16.66490883 7.2823246 16.66490883 7.29014587 17.81773376 C7.30402929 20.30435157 7.30308609 22.79069183 7.30078125 25.27734375 C7.30466884 27.00842898 7.30900364 28.73951327 7.31376648 30.47059631 C7.32122597 34.09786065 7.32093936 37.72502764 7.31567383 41.35229492 C7.30987916 45.99727829 7.32681131 50.64186291 7.3500185 55.28678036 C7.36476039 58.86160099 7.36562693 62.43632569 7.36250877 66.01117134 C7.36302174 67.72356519 7.36825497 69.43596444 7.37832069 71.14832878 C7.39067696 73.54437951 7.38389878 75.93965476 7.37231445 78.33569336 C7.38378006 79.39333893 7.38378006 79.39333893 7.39547729 80.47235107 C7.33899789 85.76572403 5.84001532 88.72405819 2.58203125 92.75390625 C-0.48778947 95.17186381 -4.20657436 95.22656979 -8 95 C-11.84676353 93.04164766 -13.60966175 91.58550738 -16 88 C-16.21985634 85.37542923 -16.32474038 82.85408308 -16.33813477 80.22729492 C-16.34967087 79.43670181 -16.36120697 78.6461087 -16.37309265 77.83155823 C-16.4074195 75.21450839 -16.42590522 72.59769437 -16.44140625 69.98046875 C-16.44830915 69.08603876 -16.45521206 68.19160877 -16.46232414 67.27007484 C-16.49816649 62.536412 -16.52170225 57.80286848 -16.53540039 53.0690918 C-16.55195007 48.18267306 -16.61037426 43.29770112 -16.67854404 38.41176891 C-16.72334894 34.65160273 -16.73689625 30.89178269 -16.74201775 27.13137245 C-16.74990849 25.33040747 -16.76954558 23.52945358 -16.80124092 21.72875023 C-17.03256665 7.65805977 -17.03256665 7.65805977 -14.47766113 3.55548096 C-10.02710997 -0.39812734 -5.78063423 -1.27976518 0 0 Z " fill="#A7B2BF" transform="translate(686,178)"/>
<path d="M0 0 C8.91 0 17.82 0 27 0 C27.33 0.99 27.66 1.98 28 3 C18.43 3 8.86 3 -1 3 C-0.67 2.01 -0.34 1.02 0 0 Z " fill="#47494D" transform="translate(619,542)"/>
<path d="M0 0 C0.66 0.33 1.32 0.66 2 1 C-3.04386355 6.78729016 -8.10458675 12.08715563 -14 17 C-14.33 17.66 -14.66 18.32 -15 19 C-15.66 18.67 -16.32 18.34 -17 18 C-11.65611545 11.66519646 -5.91166188 5.80460966 0 0 Z " fill="#21242A" transform="translate(545,575)"/>
<path d="M0 0 C0.66 1.32 1.32 2.64 2 4 C0.7934375 5.11375 0.7934375 5.11375 -0.4375 6.25 C-2.91605692 8.90991475 -3.29027524 9.6879511 -4 13 C-4.99 13.33 -5.98 13.66 -7 14 C-5.53967505 8.68972746 -3.01679014 4.53669968 0 0 Z " fill="#272A2F" transform="translate(306,495)"/>
<path d="M0 0 C2 3 2 3 1.625 5.6875 C1.41875 6.450625 1.2125 7.21375 1 8 C0.34 8 -0.32 8 -1 8 C-0.67 9.32 -0.34 10.64 0 12 C-0.99 12.66 -1.98 13.32 -3 14 C-2.40380045 9.13103697 -1.43023178 4.67209049 0 0 Z " fill="#EAEAEB" transform="translate(311,540)"/>
<path d="M0 0 C0.99 0 1.98 0 3 0 C3 4.29 3 8.58 3 13 C2.67 13 2.34 13 2 13 C2 11.35 2 9.7 2 8 C1.34 8 0.68 8 0 8 C0 5.36 0 2.72 0 0 Z " fill="#44474C" transform="translate(645,184)"/>
<path d="M0 0 C-0.33 0.99 -0.66 1.98 -1 3 C-4.3 3.33 -7.6 3.66 -11 4 C-10.67 3.01 -10.34 2.02 -10 1 C-3.375 0 -3.375 0 0 0 Z " fill="#424549" transform="translate(480,730)"/>
<path d="M0 0 C0.33 0.99 0.66 1.98 1 3 C-1.31 4.98 -3.62 6.96 -6 9 C-6.66 8.67 -7.32 8.34 -8 8 C-5.36 5.36 -2.72 2.72 0 0 Z " fill="#212429" transform="translate(386,628)"/>
<path d="M0 0 C0.66 0 1.32 0 2 0 C1.6875 1.875 1.6875 1.875 1 4 C0.01 4.66 -0.98 5.32 -2 6 C-1.34 4.02 -0.68 2.04 0 0 Z M-3 6 C-3 6.99 -3 7.98 -3 9 C-3.66 8.67 -4.32 8.34 -5 8 C-4.34 7.34 -3.68 6.68 -3 6 Z " fill="#EF7728" transform="translate(374,276)"/>
</svg>
